<?xml version="1.0" encoding="utf-8"?>
<!-- Generator: Adobe Illustrator 16.0.0, SVG Export Plug-In . SVG Version: 6.00 Build 0)  -->
<!DOCTYPE svg PUBLIC "-//W3C//DTD SVG 1.1//EN" "http://www.w3.org/Graphics/SVG/1.1/DTD/svg11.dtd">
<svg version="1.1" id="Layer_1" xmlns="http://www.w3.org/2000/svg" xmlns:xlink="http://www.w3.org/1999/xlink" x="0px" y="0px"
	 width="1151px" height="1301px" viewBox="0 0 1151 1301" enable-background="new 0 0 1151 1301" xml:space="preserve">
<path fill="#004F3B" d="M632.168,0.98c147.03,6.996,301.692,61.715,391.462,175.639c83.01,105.335,27.24,254.904,50.95,385.784
	c19.06,105.222,90.2,198.558,74.06,304.243c-17.89,117.088-74.899,228.823-167.206,305.563
	c-96.673,80.38-224.714,147.92-349.266,123.851c-120.719-23.32-158.325-176.311-261.464-241.86
	c-112.85-71.719-309.595-32.41-361.178-153.865C-41.006,781.356,124.368,676.842,157.479,552.16
	c36.676-138.112-39.552-304.965,54.491-414.162C309.4,24.868,480.975-6.214,632.168,0.98z"/>
</svg>
